<svg width="16" height="16" viewBox="0 0 16 16" fill="none" xmlns="http://www.w3.org/2000/svg">
<path fill-rule="evenodd" clip-rule="evenodd" d="M3.81836 1C3.81836 0.447715 4.26607 0 4.81836 0H15.0002C15.5525 0 16.0002 0.447715 16.0002 1V11.1818C16.0002 11.7341 15.5525 12.1818 15.0002 12.1818H11.182C10.6297 12.1818 10.182 11.7341 10.182 11.1818C10.182 10.6295 10.6297 10.1818 11.182 10.1818H14.0002V2H5.81836V4.81818C5.81836 5.37047 5.37064 5.81818 4.81836 5.81818C4.26607 5.81818 3.81836 5.37047 3.81836 4.81818V1Z" fill="white"/>
<path fill-rule="evenodd" clip-rule="evenodd" d="M0 4.81836C0 4.26607 0.447715 3.81836 1 3.81836H11.1818C11.7341 3.81836 12.1818 4.26607 12.1818 4.81836V15.0002C12.1818 15.5525 11.7341 16.0002 11.1818 16.0002H1C0.447715 16.0002 0 15.5525 0 15.0002V4.81836ZM2 5.81836V14.0002H10.1818V5.81836H2Z" fill="white"/>
</svg>
